<?xml version="1.0" encoding="utf-8"?>
<!-- Generator: Adobe Illustrator 28.0.0, SVG Export Plug-In . SVG Version: 6.00 Build 0)  -->
<svg version="1.1" id="Layer_1" xmlns="http://www.w3.org/2000/svg" xmlns:xlink="http://www.w3.org/1999/xlink" x="0px" y="0px"
	 viewBox="0 0 306 279.2" style="enable-background:new 0 0 306 279.2;" xml:space="preserve">
<path d="M159.7,89.6L159.7,89.6c0-0.1-13.8-0.1-13.8-0.1v32.1h13.8c10.5,0,15.7-6.4,15.7-16S170.2,89.6,159.7,89.6z"/>
<path d="M155.7,0C115,39.9,60.4,65,0,66.9v212.3c119.1-1.9,226.9-50.7,306-128.9L155.7,0L155.7,0z M106.4,133.8L106.4,133.8H66v28.3
	h36.8v20.3H66v43.7H42.7V113.2h63.7V133.8L106.4,133.8z M153.9,140.4h-8v42h-23.3V69.5h38.7c22.2,0,37.3,13.5,37.3,36
	c0,22.5-8.2,26.7-21.4,31.3l24.5,45.6h-25.8L153.9,140.4z"/>
</svg>
